<mxfile host="app.diagrams.net" modified="2021-04-10T13:58:22.248Z" agent="5.0 (Macintosh; Intel Mac OS X 10_15_6) AppleWebKit/605.1.15 (KHTML, like Gecko) Version/14.0.3 Safari/605.1.15" etag="0R6xBm0Pf-sU0lkuOD8_" version="14.5.10" type="github">
  <diagram id="3crj-N6eCKjugvdwFmlM" name="Page-1">
    <mxGraphModel dx="2036" dy="795" grid="1" gridSize="10" guides="1" tooltips="1" connect="1" arrows="1" fold="1" page="1" pageScale="1" pageWidth="850" pageHeight="1100" math="0" shadow="0">
      <root>
        <mxCell id="0" />
        <mxCell id="1" parent="0" />
        <mxCell id="ORVzDimxOUe0flfOR2wj-2" value="" style="strokeWidth=1;shadow=0;dashed=0;align=center;html=1;shape=mxgraph.mockup.containers.browserWindow;rSize=0;strokeColor=#666666;strokeColor2=#008cff;strokeColor3=#c4c4c4;mainText=,;recursiveResize=0;fontSize=19;" vertex="1" parent="1">
          <mxGeometry x="60" y="130" width="1040" height="1130" as="geometry" />
        </mxCell>
        <mxCell id="ORVzDimxOUe0flfOR2wj-3" value="Page 1" style="strokeWidth=1;shadow=0;dashed=0;align=center;html=1;shape=mxgraph.mockup.containers.anchor;fontSize=17;fontColor=#666666;align=left;" vertex="1" parent="ORVzDimxOUe0flfOR2wj-2">
          <mxGeometry x="60" y="12" width="110" height="26" as="geometry" />
        </mxCell>
        <mxCell id="ORVzDimxOUe0flfOR2wj-4" value="https://www.draw.io" style="strokeWidth=1;shadow=0;dashed=0;align=center;html=1;shape=mxgraph.mockup.containers.anchor;rSize=0;fontSize=17;fontColor=#666666;align=left;" vertex="1" parent="ORVzDimxOUe0flfOR2wj-2">
          <mxGeometry x="130" y="60" width="250" height="26" as="geometry" />
        </mxCell>
        <mxCell id="ORVzDimxOUe0flfOR2wj-5" value="" style="rounded=0;whiteSpace=wrap;html=1;" vertex="1" parent="ORVzDimxOUe0flfOR2wj-2">
          <mxGeometry y="110" width="1040" height="50" as="geometry" />
        </mxCell>
        <mxCell id="ORVzDimxOUe0flfOR2wj-6" value="&lt;font style=&quot;font-size: 17px&quot;&gt;LOGO&lt;/font&gt;" style="text;html=1;strokeColor=none;fillColor=none;align=center;verticalAlign=middle;whiteSpace=wrap;rounded=0;" vertex="1" parent="ORVzDimxOUe0flfOR2wj-2">
          <mxGeometry x="470" y="125" width="100" height="20" as="geometry" />
        </mxCell>
        <mxCell id="ORVzDimxOUe0flfOR2wj-7" value="login" style="text;html=1;strokeColor=none;fillColor=none;align=center;verticalAlign=middle;whiteSpace=wrap;rounded=0;fontSize=17;fontColor=#949494;" vertex="1" parent="ORVzDimxOUe0flfOR2wj-2">
          <mxGeometry x="960" y="125" width="70" height="20" as="geometry" />
        </mxCell>
        <mxCell id="ORVzDimxOUe0flfOR2wj-35" value="" style="rounded=0;whiteSpace=wrap;html=1;fontSize=17;fontColor=#949494;align=left;" vertex="1" parent="ORVzDimxOUe0flfOR2wj-2">
          <mxGeometry y="430" width="1040" height="180" as="geometry" />
        </mxCell>
        <mxCell id="ORVzDimxOUe0flfOR2wj-36" value="Descrizione associazione&lt;br&gt;(Di default prima immagine --&amp;gt; cambia dinamicamente in base all immagine cliccata)" style="text;html=1;strokeColor=none;fillColor=none;align=center;verticalAlign=middle;whiteSpace=wrap;rounded=0;fontSize=17;fontColor=#949494;" vertex="1" parent="ORVzDimxOUe0flfOR2wj-2">
          <mxGeometry x="230" y="450" width="580" height="130" as="geometry" />
        </mxCell>
        <mxCell id="ORVzDimxOUe0flfOR2wj-37" value="" style="rounded=0;whiteSpace=wrap;html=1;fontSize=17;fontColor=#949494;align=left;" vertex="1" parent="ORVzDimxOUe0flfOR2wj-2">
          <mxGeometry y="610" width="1040" height="200" as="geometry" />
        </mxCell>
        <mxCell id="ORVzDimxOUe0flfOR2wj-39" style="edgeStyle=orthogonalEdgeStyle;rounded=0;orthogonalLoop=1;jettySize=auto;html=1;exitX=0.5;exitY=1;exitDx=0;exitDy=0;fontSize=17;fontColor=#949494;" edge="1" parent="ORVzDimxOUe0flfOR2wj-2" source="ORVzDimxOUe0flfOR2wj-37" target="ORVzDimxOUe0flfOR2wj-37">
          <mxGeometry relative="1" as="geometry" />
        </mxCell>
        <mxCell id="ORVzDimxOUe0flfOR2wj-40" value="dettaglio annuncio" style="html=1;shadow=0;dashed=0;shape=mxgraph.bootstrap.rrect;rSize=5;strokeColor=none;strokeWidth=1;fillColor=#0085FC;fontColor=#FFFFFF;whiteSpace=wrap;align=center;verticalAlign=middle;spacingLeft=0;fontStyle=0;fontSize=16;spacing=5;" vertex="1" parent="ORVzDimxOUe0flfOR2wj-2">
          <mxGeometry x="150" y="710" width="240" height="40" as="geometry" />
        </mxCell>
        <mxCell id="ORVzDimxOUe0flfOR2wj-38" value="Lista News (multipagina)" style="text;html=1;strokeColor=none;fillColor=none;align=center;verticalAlign=middle;whiteSpace=wrap;rounded=0;fontSize=17;fontColor=#949494;" vertex="1" parent="ORVzDimxOUe0flfOR2wj-2">
          <mxGeometry x="-90" y="610" width="670" height="150" as="geometry" />
        </mxCell>
        <mxCell id="ORVzDimxOUe0flfOR2wj-41" style="edgeStyle=orthogonalEdgeStyle;rounded=0;orthogonalLoop=1;jettySize=auto;html=1;exitX=0.5;exitY=1;exitDx=0;exitDy=0;fontSize=17;fontColor=#949494;" edge="1" parent="ORVzDimxOUe0flfOR2wj-2" source="ORVzDimxOUe0flfOR2wj-37" target="ORVzDimxOUe0flfOR2wj-37">
          <mxGeometry relative="1" as="geometry" />
        </mxCell>
        <mxCell id="ORVzDimxOUe0flfOR2wj-42" value="FOOTER" style="text;html=1;strokeColor=none;fillColor=none;align=center;verticalAlign=middle;whiteSpace=wrap;rounded=0;fontSize=17;fontColor=#949494;" vertex="1" parent="ORVzDimxOUe0flfOR2wj-2">
          <mxGeometry x="170" y="820" width="670" height="40" as="geometry" />
        </mxCell>
        <mxCell id="ORVzDimxOUe0flfOR2wj-43" value="&lt;h1&gt;&lt;span style=&quot;font-size: 17px ; font-weight: normal&quot;&gt;Social link&lt;/span&gt;&lt;/h1&gt;&lt;div&gt;&lt;span style=&quot;font-size: 17px ; font-weight: normal&quot;&gt;Dove siamo (mappa google col pin &quot;&lt;/span&gt;&lt;/div&gt;&lt;a class=&quot;DbQRg&quot; target=&quot;_blank&quot; href=&quot;http://maps.google.com/maps?q=35.128061%2C-106.535561&amp;amp;ll=35.128061%2C-106.535561&amp;amp;z=17&amp;amp;authuser=3&quot; style=&quot;color: rgb(51 , 103 , 214) ; font-size: 13px ; font-family: &amp;#34;roboto&amp;#34; , &amp;#34;arial&amp;#34; , sans-serif ; background-color: rgb(255 , 255 , 255)&quot;&gt;http://maps.google.com/maps?q=35.128061,-106.535561&amp;amp;ll=35.128061,-106.535561&amp;amp;z=17&lt;/a&gt;&lt;div&gt;&lt;span style=&quot;font-size: 17px ; font-weight: normal&quot;&gt;&quot;)&lt;/span&gt;&lt;/div&gt;" style="text;html=1;strokeColor=none;fillColor=none;spacing=5;spacingTop=-20;whiteSpace=wrap;overflow=hidden;rounded=0;fontSize=17;fontColor=#949494;align=left;" vertex="1" parent="ORVzDimxOUe0flfOR2wj-2">
          <mxGeometry x="50" y="930" width="430" height="200" as="geometry" />
        </mxCell>
        <mxCell id="ORVzDimxOUe0flfOR2wj-33" value="HEADER" style="text;html=1;strokeColor=none;fillColor=none;align=center;verticalAlign=middle;whiteSpace=wrap;rounded=0;fontSize=17;fontColor=#949494;" vertex="1" parent="1">
          <mxGeometry x="580" y="220" width="40" height="20" as="geometry" />
        </mxCell>
        <mxCell id="ORVzDimxOUe0flfOR2wj-34" value="CAROSELLO IMMAGINI (FIGA)&lt;br&gt;Cliccabili (dinamicamente)" style="text;html=1;strokeColor=none;fillColor=none;align=left;verticalAlign=middle;whiteSpace=wrap;rounded=0;fontSize=17;fontColor=#949494;" vertex="1" parent="1">
          <mxGeometry x="110" y="260" width="280" height="120" as="geometry" />
        </mxCell>
      </root>
    </mxGraphModel>
  </diagram>
</mxfile>
